<?xml version="1.0" encoding="UTF-8"?>
<svg id="Layer_1" xmlns="http://www.w3.org/2000/svg" version="1.1" viewBox="0 0 1920 1080">
  <!-- Generator: Adobe Illustrator 29.5.1, SVG Export Plug-In . SVG Version: 2.1.0 Build 141)  -->
  <defs>
    <style>
      .st0 {
        fill: #eec697;
      }

      .st1 {
        fill: #bec3a0;
      }

      .st2 {
        fill: #ecb991;
      }

      .st3 {
        fill: #fcebd4;
      }

      .st4 {
        fill: #f6d8b5;
      }

      .st5 {
        fill: #ddd7b8;
      }
    </style>
  </defs>
  <path class="st3" d="M1978.5-6.17v1079H52V-6.17h1926.5ZM1635.12,821.24l35.84-37.64c45.48-64.43,70.1-149.44,50.27-228.93-9.3-37.28-31-70.41-56.62-99.22-48-53.97-138.78-102.11-132.69-185.27,2.78-37.99,30.87-67.87,53.71-95.81,19.68-24.07,47.76-54.36,56.41-83.65.84-2.84,2.47-5.68,2.55-6.03.38-1.59.36-10.59,0-12.22-.18-.78-1.72-.8-2-1.54-3.65-9.68-7.67-15.29-17.25-20.46-32.17-17.36-112.3.42-146.92,11.48-80.48,25.72-166.05,85.19-182.28,171.53-1.01,5.39-2.32,10.64-3.3,14.77-3.03,12.65.18,46.99,2.21,59.69,2.71,17.02,7,30.5,13.46,45.72,10.6,24.96,19.57,47.23,24.21,74.52.7,4.09,1.57,6.84,2.21,9.54.59,2.48.5,18.94.1,21.99-.26,1.96-1.96,1.34-2.17,2.23-1.74,7.39-4.73,26.92-5.28,34.55-.08,1.16-.55,15.79,3.14,12.09-.79-2.94,2.59-5.3,2.98-7.08.23-1.06-1.93-6.47,1.76-5.55,2.2.55,3.34,6.89,4.3,8.35,1.24,1.89,5.93,3.48,7.22,5.42,1.68,2.5,2.08,7.97,3.29,10.4.89,1.79,3.78,3.34,5.13,5.4,3.31,5.06,2.74,9.99,4.34,14.61,1.27,3.67,9.58,11.15,8.75,16.11-.29,1.71-2,2.6-1.76,5.29.29,3.12,3.59,3.23,3.89,4.5.32,1.38-2.78,9.59-3.01,12.57-.37,4.74,1.7,9.97,1.03,13.61-.3,1.62-2.01,2.87-2.06,4.28-.08,2.22,4.23,13.13,4.14,15.85-.07,2.15-2.9,2.9-3.15,5.23-.45,4.19,5.33,9.86,2.19,14.52-.67,1-2.79,1.19-3.06,2.37-.42,1.84,2.08,9.15,1.51,12.13s-6.25,4.41-6.79,5.36c-.84,1.45,1.66,4.98.87,6.07-.29.39-3.71.48-4.69,2.18-2.43,4.18-2.43,13.46-3.88,17.17-.69,1.78-2.89,1.81-3.51,2.82-1.01,1.66-.06,4.17-.66,5.11-.46.73-3.5.69-3.95,1.32-1.14,1.59,1.12,5.39.8,6.67-.29,1.18-2.46,1.04-3,2.43-1.38,3.58.29,20.91-1.12,22.32-.2.2-2.83-.07-4.14.57-4.18,2.04-2.76,9.37-3.3,9.94-.37.38-2.58-.25-2.94.12-.62.63.28,4.05-.08,5.54-.27,1.12-2.68,1.05-3.12,2.43-.6,1.9,1.1,4.01.8,5.98-.25,1.7-2.22,3.03-2.73,4.69-1.74,5.55,2.12,4.28,2.76,6.17.78,2.33-1.01,5.98,1.2,7.78-.75,1.32-1.6,6.08-3.09,7.76-1.19,1.33-2.95.45-3.23.67,1.12-1.12-.93-3.27-2.1-2.1s.98,3.22,2.1,2.1c-.31.24-1.07,4.67-2.8,7.09-38.05,53.2-68.64,112.99-79.23,178.83-.52,3.26,1.25,6.04-2.22,7.43l-2.12,29.81,4.1-4.01c6.55-18.28,13.8-35.02,23.28-51.78,1.51,3.76,6.09,7.18,7.63,10.79.87,2.04.46,6.62,2.45,6.98,1.13.2,3.81-2.02,4.66.13-6.24,7.38-11.95,16.99-17.58,25.01-1.89,2.69-5.66,5.71-6.13,9.71l57.14-22.89c52.52-20.15,107.75-29.01,164.11-27.66,73.64,1.76,161.56,10.45,227.29-30.67,14.97-9.36,34.2-26.87,24.87-46.38-11.59-24.24-69.94-37.1-94.73-40.81ZM734.54,369.64c2.69-15.1,49.99-61.95,63.72-72.64,78.51-61.14,180.6-76.87,266.5-125.25,40.88-23.02,74.05-49.35,105.19-84.35,8.41-9.45,19.07-21.48,23.92-32.74.46-1.06,4.12-2.77,1.78-6.93-2.51-4.47-24.46-3.67-29.78-3.36-62.17,3.64-147.18,20.52-197.44,58.48-43.77,33.06-62.91,84.67-101.19,123.09-30.6,30.72-70.76,49.98-102.75,79.43-18.08,16.64-39.51,42.72-51.33,63.49-9.31,16.37-23.77,50.04-23.98,68.64-.01,1.18-.58,2.94,1.09,2.65.25-4.19,3.48-6.65,5.25-9.2,33.29-48.13,77.78-70.21,135.56-79.04,45.66-6.98,85.55-9.26,130.46-23.31,68.13-21.32,110.57-42.23,186.29-31.48,16.92,2.4,35.11,7.64,50.69,14.59.77-1.05-1.44-2.48-2.15-3.11-9.4-8.37-28.64-18.48-40.3-23.94-123.31-57.7-255.01-32.35-363.55,42.39-18.59,12.8-39.34,31.81-57.99,42.57-.49,2.77,1.39,3.66-3.15,3.15-.59-2.98,1.94-2.45,3.15-3.15ZM813.18,133.14c-35.61-39.58-113.59-40.97-161.88-32.49-99.18,17.42-208.26,80.76-210.68,190.51-.24,10.71.95,22.83,4.19,31.89,1.85,5.18,2.05,13.82,4.12,19.87,18.33,53.55,73.44,84.85,107.6,128.59,14.47,18.52,34.69,56.82,57.93,63.92,11.85,3.62,30-.82,36.41-12.02,1.89-3.3,4.91-13.79,5.57-17.6,4.33-25.07,2.46-52.53,6.59-77.62,7.43-45.11,22.57-81.28,54.16-114.28,33.39-34.88,97.81-76.68,110.6-123.14,5.59-20.29-1.08-42.59-14.62-57.63ZM1156.55,426.85c-56.02-64-158.55-78.46-234.15-42.63-56.64,26.84-95.73,79.1-92,142.79.14,2.46.65,9.62,1.06,11.4.18.76,1.8.59,2.04,1.47,6.27,22.6,6.49,30.53,20.02,50.57,54.22,80.3,166.7,98.8,251.42,56.23,49.31-24.77,86.81-74.53,86.81-130.18,0-9.2-1.53-19.95-4.23-27.62-1.85-5.23-2.25-13.7-4.36-19.46-4.52-12.36-17.55-32.19-26.62-42.55ZM510.88,480.54c-33.75-35.67-101.66-84.67-152.88-80.36-29.45,2.48-58.29,27.95-63.46,56.59-.9,4.96-.45,12.45-1.35,16.37-.18.78-1.88.64-2.07,1.43-.41,1.69-.36,9.48-.1,11.46s1.97,1.37,2.17,2.23c.7,2.99-.33,7.67.16,11.25,5.75,42.74,30.83,73.07,63.59,99.62,22.1,17.91,57.22,37.09,59.55,68.91,3.38,46.09-44.62,67.76-73.82,94.73-22.84,21.1-44.45,49.23-49.33,80.18-.74,4.7-1.42,7.28-2.21,10.59-.34,1.44-.34,8.7,0,10.14.19.8,1.89.64,2.07,1.43,2.97,12.85,1.12,17.2,7.29,30.66,30.96,67.56,122.42,90.43,191.23,91.84,45.11.92,91.23-9.6,135.92-13.73,41.26-3.81,83.1-1.76,124.28,2.11,21.93,2.06,68.98,13.02,86.64-.8,6.17-4.82,4.67-8.53,6.65-14.22.32-.91,1.84-.76,2.01-1.51,1.54-6.47-.92-13.68-2.56-19.3-18.45-63.38-105.03-95.16-150.83-138.24-51.94-48.86-68.73-100.3-92.97-163.62-22.13-57.8-46.25-111.55-89.98-157.77ZM727.89,539.44c-.38-.54-1.86-.98-2.65-2.02-5.12-6.71-17.13-19.52-26.86-16.03-.37.13-4.84,4.82-5.1,5.51-3.5,9.19-1.39,24.79-1.87,34.9-.63,13.28-.42,31.64-2.07,44.24-.26,1.96-1.97,1.37-2.17,2.23-1.9,8.09-1.75,36.93-1.12,46.17.37,5.35,2.46,7.33,3.13,9.7,5.35,18.92,13.43,31.51,24.33,47.9,22.63,34.03,50.62,63.98,83.72,89.2,36.19,27.58,73.62,36.94,86.98,84.46,9.76,34.7-5.04,84.47-24.29,114.78-.87,1.36-8.26,5.96-1.61,7.1,2.89.49,9.36.92,12.6,1.09,20.42,1.1,43.48-.1,64.25,0,17.04.08,34.1-.15,51.13-.04.54-12.14,2.09-24.24,3.15-36.33.38-4.4-.6-9.6-.07-13.75.26-2.03,2.03-.99,2.27-3.01,4.41-36.21,7.13-87.03,5.23-123.28-1.8-34.31-14.63-60.11-34.63-86.4-22.65-29.77-49.42-41.32-78.03-63.12-13.21-10.07-26.29-19.96-39.59-29.91-10.42-7.81-48.48-46.74-46.91-9.96.29,6.79,8.84,26.21,12.82,32.49,14.4,22.77,43.63,38.05,59.92,59.07,1.74,2.24,5.42,2.41,4.19,7.86-.93.95-11.85-6.43-14.04-7.53-46.14-23.07-100.77-41.28-120.86-92.94-3.57-30.35-3.71-61.21-8.49-90.44-.45-2.75-1.94-9.97-3.35-11.94ZM1328.3,525.75c-1.56-1.17-6.59-1.6-8.64-1.43-11.85,1.01-21.47,17.36-26.77,26.13-1.6,17.06-2.99,34.22-4.29,51.31-.29,3.75.53,8.18.07,11.64-.26,1.96-1.97,1.37-2.17,2.23-1.18,5.03-.35,16-1.08,21.9-1.49,12.09-6.39,19.03-12.6,28.69-22.13,34.48-57.33,48.2-93.12,64.61-10.13,4.64-19.95,10.1-30.14,14.61-4.47-4.47,30.06-31.02,33.33-34.05,1.65-1.53,3.29-5.07,4.95-6.63,14.77-13.94,30.14-24.99,35.97-45.63,2.37-8.37,7.03-30.92-6.32-30.61-15.11.36-34.65,21.7-46.35,30.6-23.16,17.6-47.11,34.4-70.56,51.59-36.05,26.41-46.71,43.16-62.75,83.4-2.77,6.94-3.93,12.27-6.3,18.99-.32.91-1.82.74-2.01,1.52-4.46,18.66-2.52,56.08-.12,75.66.24,1.95,1.96,1.33,2.17,2.23,5.86,24.95,4.57,53.3,12.65,76.83l3.17,39.29,135.89-2.11c1.26-4.48-1.7-3.93-3-5.91-16.79-25.58-24.8-51.32-32.77-80.12-6.58-23.8,1.32-52.26,18.86-69.29,17.32-16.81,43.29-29.58,62.72-44.69,32.13-24.98,57.69-52.24,79.85-85.53,11.27-16.94,26.36-38.63,29.03-59.35,3.89-30.23-2.69-74.08-5.12-105.15-.52-6.61.95-26.59-4.54-30.72ZM760.55,559.44c-.27-.33-6.27-5.25-6.65-5.45-4.61-2.41-8.92-2.11-9.81,3.62-1.43,9.24,1.64,27.66,2.08,37.78.3,6.9-.97,15.77-.13,22.22.26,1.96,1.97,1.37,2.17,2.23.91,3.89-.38,10.99.04,15.58,1.49,16.49,21.99,40.12,35.28,50.01l18.96,11.57c.83-3.61-2.91-5.73-3.68-7.06-8.33-14.38-13.58-23-18.01-39.48-.22-.81-1.8-.77-1.99-1.55-3.85-16.43.16-38.04-4.34-55.3-.22-.85-1.73-.86-1.93-1.62-2.41-9.44-5.76-24.97-12-32.55ZM1274.47,649.27c5.14-12.77,2.91-31.68,3.53-45.45.47-10.37,1.88-21.13,2.2-31.49.11-3.5.79-14.1-2.13-15.85-3.21-1.93-9.26,2.09-11.61,4.52-9.68,10.02-15.11,32.38-17.79,46.13-.79,4.05-1.69,6.4-2.19,8.51-1.35,5.62.42,18.21-.03,25.06-1.44,22.1-9.53,33.19-19.98,50.8-1.54,2.6-2.25,5.78-4.22,8.17,2.19-.34,4.92-1.53,6.86-2.61,16.93-9.36,38.3-30.25,45.36-47.8Z"/>
  <path class="st4" d="M1330.72,761.24c-2.21-1.8-.42-5.44-1.2-7.78-.63-1.89-4.5-.62-2.76-6.17.52-1.66,2.48-2.99,2.73-4.69.29-1.97-1.41-4.08-.8-5.98.44-1.38,2.84-1.31,3.12-2.43.36-1.49-.54-4.9.08-5.54.36-.36,2.57.27,2.94-.12.55-.57-.88-7.9,3.3-9.94,1.31-.64,3.94-.37,4.14-.57,1.42-1.41-.26-18.74,1.12-22.32.54-1.39,2.71-1.25,3-2.43.31-1.28-1.94-5.09-.8-6.67.45-.63,3.49-.6,3.95-1.32.6-.94-.35-3.45.66-5.11.62-1.01,2.81-1.04,3.51-2.82,1.45-3.72,1.45-12.99,3.88-17.17.98-1.7,4.4-1.79,4.69-2.18.8-1.09-1.7-4.62-.87-6.07.54-.94,6.24-2.53,6.79-5.36.58-2.97-1.92-10.29-1.51-12.13.27-1.18,2.38-1.37,3.06-2.37,3.14-4.66-2.64-10.33-2.19-14.52.25-2.33,3.08-3.08,3.15-5.23.09-2.72-4.23-13.63-4.14-15.85.05-1.4,1.76-2.65,2.06-4.28.67-3.64-1.39-8.87-1.03-13.61.23-2.98,3.33-11.19,3.01-12.57-.3-1.27-3.6-1.38-3.89-4.5-.25-2.69,1.47-3.58,1.76-5.29.83-4.95-7.48-12.44-8.75-16.11-1.6-4.62-1.03-9.55-4.34-14.61-1.35-2.06-4.24-3.61-5.13-5.4-1.2-2.43-1.61-7.9-3.29-10.4-1.29-1.93-5.99-3.52-7.22-5.42-.95-1.46-2.09-7.8-4.3-8.35-3.69-.92-1.53,4.49-1.76,5.55-.39,1.78-3.76,4.14-2.98,7.08-3.69,3.7-3.22-10.93-3.14-12.09.55-7.63,3.54-27.16,5.28-34.55.21-.89,1.91-.27,2.17-2.23.4-3.05.49-19.5-.1-21.99-.65-2.7-1.52-5.45-2.21-9.54-4.64-27.29-13.61-49.56-24.21-74.52-6.47-15.23-10.75-28.7-13.46-45.72-2.03-12.7-5.24-47.05-2.21-59.69.99-4.12,2.29-9.38,3.3-14.77,16.23-86.34,101.81-145.81,182.28-171.53,34.62-11.06,114.75-28.84,146.92-11.48,9.58,5.17,13.59,10.78,17.25,20.46.28.75,1.82.77,2,1.54.37,1.62.38,10.63,0,12.22-.08.34-1.72,3.19-2.55,6.03-8.65,29.29-36.72,59.58-56.41,83.65-22.84,27.93-50.93,57.82-53.71,95.81-6.09,83.16,84.7,131.3,132.69,185.27,25.62,28.81,47.32,61.95,56.62,99.22,19.84,79.5-4.79,164.5-50.27,228.93l-35.84,37.64c-134.84-20.17-267.89,30.78-354.96,133.69-.85-2.15-3.54.07-4.66-.13-1.99-.35-1.58-4.94-2.45-6.98-1.54-3.62-6.12-7.03-7.63-10.79,21.64-38.24,65.31-82.87,99-113.18,76.97-69.25,175.49-108.96,231.77-200.8,14.87-24.27,29.21-53.03,22.01-83.11-5.15-6.47-6.56-10.47-16.08-10.22-27.14.72-89.48,43.41-111.79,61-50.74,40.01-100.8,92.34-139.4,143.8-5.69,7.58-16.06,19.44-20.19,26.71Z"/>
  <path class="st1" d="M510.88,480.54c43.73,46.22,67.86,99.97,89.98,157.77,24.24,63.32,41.03,114.77,92.97,163.62,45.8,43.08,132.38,74.85,150.83,138.24,1.64,5.62,4.1,12.84,2.56,19.3-.18.75-1.7.6-2.01,1.51-1.98,5.69-.48,9.4-6.65,14.22-17.66,13.82-64.71,2.86-86.64.8-41.18-3.87-83.02-5.91-124.28-2.11-44.69,4.12-90.81,14.65-135.92,13.73-68.81-1.4-160.27-24.28-191.23-91.84-6.17-13.46-4.32-17.81-7.29-30.66-.18-.79-1.88-.63-2.07-1.43-.34-1.44-.34-8.7,0-10.14.79-3.32,1.47-5.89,2.21-10.59,4.89-30.94,26.49-59.08,49.33-80.18,29.2-26.97,77.2-48.64,73.82-94.73-2.33-31.82-37.45-51-59.55-68.91-32.76-26.55-57.84-56.87-63.59-99.62-.48-3.59.55-8.26-.16-11.25-.2-.86-1.91-.27-2.17-2.23s-.3-9.77.1-11.46c.19-.79,1.89-.66,2.07-1.43.9-3.92.46-11.41,1.35-16.37,5.17-28.64,34.01-54.11,63.46-56.59,51.22-4.31,119.12,44.68,152.88,80.36Z"/>
  <path class="st5" d="M813.18,133.14c13.54,15.05,20.2,37.35,14.62,57.63-12.79,46.46-77.21,88.26-110.6,123.14-31.59,32.99-46.73,69.16-54.16,114.28-4.13,25.09-2.26,52.55-6.59,77.62-.66,3.82-3.68,14.3-5.57,17.6-6.41,11.2-24.55,15.64-36.41,12.02-23.24-7.1-43.47-45.4-57.93-63.92-34.16-43.74-89.27-75.03-107.6-128.59-2.07-6.05-2.27-14.69-4.12-19.87-3.24-9.07-4.43-21.18-4.19-31.89,2.42-109.75,111.51-173.09,210.68-190.51,48.29-8.48,126.27-7.1,161.88,32.49Z"/>
  <path class="st0" d="M1156.55,426.85c9.07,10.37,22.1,30.19,26.62,42.55,2.11,5.76,2.51,14.22,4.36,19.46,2.71,7.67,4.23,18.43,4.23,27.62,0,55.65-37.5,105.41-86.81,130.18-84.72,42.57-197.2,24.07-251.42-56.23-13.53-20.04-13.76-27.97-20.02-50.57-.24-.88-1.87-.7-2.04-1.47-.41-1.78-.92-8.94-1.06-11.4-3.74-63.69,35.35-115.95,92-142.79,75.6-35.83,178.13-21.37,234.15,42.63Z"/>
  <path class="st2" d="M1328.3,525.75c5.5,4.13,4.02,24.12,4.54,30.72,2.43,31.07,9.01,74.92,5.12,105.15-2.67,20.72-17.76,42.41-29.03,59.35-22.16,33.29-47.71,60.55-79.85,85.53-19.43,15.1-45.4,27.87-62.72,44.69-17.54,17.03-25.44,45.49-18.86,69.29,7.96,28.8,15.98,54.54,32.77,80.12,1.3,1.98,4.26,1.42,3,5.91l-135.89,2.11-3.17-39.29c-8.08-23.53-6.79-51.89-12.65-76.83-.21-.89-1.93-.28-2.17-2.23-2.4-19.58-4.34-57,.12-75.66.19-.78,1.69-.61,2.01-1.52,2.37-6.71,3.54-12.05,6.3-18.99,16.05-40.24,26.7-56.98,62.75-83.4,23.46-17.19,47.4-33.99,70.56-51.59,11.71-8.9,31.24-30.24,46.35-30.6,13.35-.32,8.69,22.23,6.32,30.61-5.83,20.64-21.21,31.69-35.97,45.63-1.66,1.57-3.3,5.1-4.95,6.63-3.27,3.03-37.81,29.58-33.33,34.05,10.19-4.5,20.01-9.96,30.14-14.61,35.79-16.4,70.99-30.12,93.12-64.61,6.2-9.66,11.1-16.61,12.6-28.69.73-5.91-.09-16.88,1.08-21.9.2-.86,1.91-.26,2.17-2.23.46-3.47-.36-7.89-.07-11.64,1.3-17.09,2.69-34.24,4.29-51.31,5.3-8.78,14.93-25.12,26.77-26.13,2.06-.18,7.08.25,8.64,1.43Z"/>
  <path class="st2" d="M727.89,539.44c1.41,1.97,2.9,9.19,3.35,11.94,4.78,29.23,4.92,60.09,8.49,90.44,20.09,51.66,74.72,69.87,120.86,92.94,2.2,1.1,13.12,8.48,14.04,7.53,1.23-5.45-2.45-5.62-4.19-7.86-16.29-21.02-45.52-36.3-59.92-59.07-3.97-6.28-12.53-25.7-12.82-32.49-1.57-36.78,36.48,2.15,46.91,9.96,13.29,9.96,26.37,19.84,39.59,29.91,28.61,21.8,55.38,33.35,78.03,63.12,20,26.29,32.83,52.09,34.63,86.4,1.9,36.25-.82,87.07-5.23,123.28-.25,2.02-2.02.98-2.27,3.01-.52,4.14.46,9.35.07,13.75-1.05,12.09-2.61,24.19-3.15,36.33-17.03-.12-34.09.12-51.13.04-20.77-.1-43.84,1.1-64.25,0-3.24-.17-9.71-.6-12.6-1.09-6.66-1.14.74-5.74,1.61-7.1,19.25-30.31,34.05-80.08,24.29-114.78-13.36-47.52-50.79-56.88-86.98-84.46-33.1-25.22-61.09-55.17-83.72-89.2-10.9-16.39-18.98-28.98-24.33-47.9-.67-2.37-2.76-4.34-3.13-9.7-.63-9.23-.78-38.07,1.12-46.17.2-.86,1.91-.26,2.17-2.23,1.65-12.6,1.44-30.96,2.07-44.24.48-10.11-1.63-25.71,1.87-34.9.26-.68,4.73-5.37,5.1-5.51,9.73-3.49,21.74,9.32,26.86,16.03.79,1.04,2.27,1.48,2.65,2.02Z"/>
  <path class="st1" d="M734.54,369.64c18.65-10.77,39.4-29.77,57.99-42.57,108.54-74.74,240.25-100.09,363.55-42.39,11.66,5.46,30.89,15.56,40.3,23.94.71.63,2.91,2.06,2.15,3.11-15.58-6.95-33.77-12.19-50.69-14.59-75.72-10.76-118.16,10.15-186.29,31.48-44.91,14.05-84.8,16.33-130.46,23.31-57.77,8.83-102.26,30.91-135.56,79.04-1.76,2.55-4.99,5.01-5.25,9.2-1.67.28-1.1-1.48-1.09-2.65.21-18.6,14.67-52.27,23.98-68.64,11.82-20.78,33.25-46.85,51.33-63.49,31.99-29.45,72.15-48.71,102.75-79.43,38.27-38.43,57.41-90.03,101.19-123.09,50.26-37.96,135.27-54.85,197.44-58.48,5.33-.31,27.28-1.11,29.78,3.36,2.34,4.17-1.33,5.87-1.78,6.93-4.85,11.25-15.51,23.29-23.92,32.74-31.14,35-64.31,61.33-105.19,84.35-85.9,48.38-187.99,64.11-266.5,125.25-13.73,10.69-61.03,57.54-63.72,72.64-1.21.7-3.74.17-3.15,3.15,4.55.51,2.66-.38,3.15-3.15ZM730.86,373.85v1.05c.68-.35.68-.7,0-1.05Z"/>
  <path class="st1" d="M1330.72,761.24c4.14-7.28,14.51-19.13,20.19-26.71,38.61-51.46,88.67-103.79,139.4-143.8,22.31-17.59,84.66-60.28,111.79-61,9.52-.25,10.92,3.75,16.08,10.22,7.2,30.08-7.14,58.84-22.01,83.11-56.28,91.84-154.8,131.55-231.77,200.8-33.69,30.31-77.36,74.94-99,113.18-9.48,16.76-16.73,33.5-23.28,51.78l-4.1,4.01,2.12-29.81c3.47-1.4,1.69-4.18,2.22-7.43,10.59-65.85,41.18-125.63,79.23-178.83,1.73-2.42,2.5-6.85,2.8-7.09.28-.22,2.04.66,3.23-.67,1.49-1.67,2.34-6.43,3.09-7.76Z"/>
  <path class="st4" d="M1324.4,769.66c-1.12,1.12-3.27-.93-2.1-2.1s3.22.98,2.1,2.1Z"/>
  <path class="st2" d="M760.55,559.44c6.25,7.58,9.59,23.11,12,32.55.2.77,1.71.78,1.93,1.62,4.5,17.26.48,38.86,4.34,55.3.18.78,1.77.74,1.99,1.55,4.43,16.48,9.68,25.1,18.01,39.48.77,1.33,4.51,3.45,3.68,7.06l-18.96-11.57c-13.29-9.89-33.79-33.51-35.28-50.01-.41-4.59.87-11.69-.04-15.58-.2-.86-1.91-.26-2.17-2.23-.84-6.45.42-15.32.13-22.22-.44-10.13-3.51-28.54-2.08-37.78.88-5.73,5.2-6.03,9.81-3.62.38.2,6.38,5.12,6.65,5.45Z"/>
  <path class="st2" d="M1274.47,649.27c-7.06,17.55-28.43,38.44-45.36,47.8-1.95,1.08-4.67,2.27-6.86,2.61,1.97-2.39,2.68-5.57,4.22-8.17,10.44-17.61,18.54-28.7,19.98-50.8.45-6.85-1.32-19.45.03-25.06.51-2.11,1.4-4.47,2.19-8.51,2.68-13.75,8.12-36.1,17.79-46.13,2.35-2.43,8.4-6.45,11.61-4.52,2.92,1.75,2.24,12.35,2.13,15.85-.31,10.37-1.73,21.12-2.2,31.49-.62,13.77,1.6,32.68-3.53,45.45Z"/>
  <path class="st1" d="M1635.12,821.24c24.79,3.71,83.14,16.57,94.73,40.81,9.33,19.51-9.9,37.02-24.87,46.38-65.73,41.11-153.65,32.43-227.29,30.67-56.37-1.35-111.59,7.51-164.11,27.66l-57.14,22.89c.47-4,4.24-7.02,6.13-9.71,5.63-8.02,11.33-17.63,17.58-25.01,87.07-102.91,220.12-153.86,354.96-133.69Z"/>
  <path class="st3" d="M730.86,373.85c.68.35.68.7,0,1.05v-1.05Z"/>
</svg>